<svg xmlns="http://www.w3.org/2000/svg" viewBox="0 0 90 90">
  <path d="M80.03 0H9.97C4.473 0 0 4.473 0 9.97v70.06C0 85.527 4.473 90 9.97 90h70.06c5.497 0 9.97-4.473 9.97-9.97V9.97C90 4.473 85.527 0 80.03 0zm5.178 80.03c0 2.854-2.323 5.178-5.18 5.178H9.97c-2.854 0-5.178-2.323-5.178-5.178V9.97c0-2.854 2.323-5.178 5.178-5.178h70.06c2.853 0 5.178 2.323 5.178 5.178v70.06z"/>
  <path d="M45 21.284C59.67 22.244 73.508 34.52 83.114 45 73.217 55.186 59.892 68.082 45 68.716 28.06 68.716 6.886 45 6.886 45h4.664l1.29 1.296c2.733 2.7 5.725 5.402 8.867 7.916 5.507 4.407 10.868 7.742 15.773 9.572 2.732 1.02 5.253 1.544 7.52 1.544 2.267 0 4.788-.523 7.52-1.544 4.905-1.83 10.266-5.165 15.773-9.572 3.142-2.514 6.134-5.215 8.867-7.916L78.45 45l-1.29-1.296c-2.733-2.7-5.725-5.402-8.867-7.917-5.507-4.406-10.868-7.74-15.773-9.572-2.732-1.02-5.253-1.543-7.52-1.543-2.267 0-4.788.523-7.52 1.543-4.905 1.83-10.266 5.166-15.773 9.572-3.142 2.515-6.134 5.216-8.867 7.917L11.55 45H6.887S28.06 21.284 45 21.284zm0 17.364c3.508 0 6.352 2.844 6.352 6.352 0 3.508-2.844 6.352-6.352 6.352-3.508 0-6.352-2.844-6.352-6.352 0-3.508 2.844-6.352 6.352-6.352zm0-6.353c-7.016 0-12.705 5.69-12.705 12.705 0 7.016 5.69 12.705 12.705 12.705 7.016 0 12.705-5.69 12.705-12.705 0-7.016-5.69-12.705-12.705-12.705z"/>
</svg>
