<?xml version="1.0" encoding="UTF-8" standalone="no"?>
<svg
   xmlns:dc="http://purl.org/dc/elements/1.1/"
   xmlns:cc="http://creativecommons.org/ns#"
   xmlns:rdf="http://www.w3.org/1999/02/22-rdf-syntax-ns#"
   xmlns:svg="http://www.w3.org/2000/svg"
   xmlns="http://www.w3.org/2000/svg"
   height="90"
   width="90"
   id="svg2"
   xml:space="preserve"
   enable-background="new 0 0 100 100"
   viewBox="0 0 90 90"
   y="0px"
   x="0px"
   version="1.1"><metadata
     id="metadata18"><rdf:RDF><cc:Work
         rdf:about=""><dc:format>image/svg+xml</dc:format><dc:type
           rdf:resource="http://purl.org/dc/dcmitype/StillImage" /><dc:title></dc:title></cc:Work></rdf:RDF></metadata><defs
     id="defs16" /><path
     id="path8"
     d="M 80.029,0 9.97,0 C 4.473,0 0,4.473 0,9.97 L 0,80.03 C 0,85.527 4.473,90 9.97,90 l 70.059,0 C 85.527,90 90,85.527 90,80.03 L 90,9.97 C 90,4.473 85.527,0 80.029,0 Z m 5.179,80.03 c 0,2.854 -2.323,5.178 -5.179,5.178 l -70.059,0 c -2.854,0 -5.178,-2.323 -5.178,-5.178 l 0,-70.06 c 0,-2.854 2.323,-5.178 5.178,-5.178 l 70.059,0 c 2.854,0 5.179,2.323 5.179,5.178 l 0,70.06 z" /><g
     id="g4"
     transform="matrix(0.693879,0,0,0.693879,10.306,10.306)"><path
       id="path6"
       d="m 94,12.8 -88,0 c -2.9,0 -5.2,2.4 -5.2,5.2 l 0,64 c 0,2.9 2.4,5.2 5.2,5.2 l 88,0 c 2.9,0 5.2,-2.4 5.2,-5.2 l 0,-64 c 0,-2.9 -2.3,-5.2 -5.2,-5.2 z M 96.8,82 c 0,1.5 -1.2,2.8 -2.8,2.8 l -88,0 C 4.5,84.8 3.2,83.6 3.2,82 l 0,-64 c 0,-1.5 1.2,-2.8 2.8,-2.8 l 88,0 c 1.5,0 2.8,1.2 2.8,2.8 l 0,64 z" /><path
       id="path8-3"
       d="m 73.4,36.5 c -0.2,-0.4 -0.5,-0.7 -1,-0.8 -0.4,-0.1 -0.9,0.1 -1.2,0.4 L 49.2,62.7 37,51.9 c -0.5,-0.4 -1.2,-0.4 -1.7,0 L 12.7,73.1 c -0.5,0.5 -0.5,1.3 -0.1,1.8 0.5,0.5 1.3,0.5 1.8,0.1 l 21.8,-20.4 12.3,11 c 0.3,0.2 0.6,0.3 0.9,0.3 0.3,0 0.7,-0.2 0.9,-0.5 l 21.5,-26 13.8,35 c 0.2,0.5 0.7,0.8 1.2,0.8 0.2,0 0.3,0 0.5,-0.1 0.6,-0.3 1,-1 0.7,-1.6 l -14.6,-37 z" /><path
       id="path10"
       d="m 45.2,45 c 6,0 10.8,-4.9 10.8,-10.8 0,-6 -4.9,-10.9 -10.8,-10.9 -5.9,0 -10.8,4.9 -10.8,10.9 0,6 4.8,10.8 10.8,10.8 z m 0,-19.1 c 4.6,0 8.3,3.7 8.3,8.4 0,4.6 -3.7,8.3 -8.3,8.3 -4.6,0 -8.3,-3.7 -8.3,-8.3 0,-4.7 3.7,-8.4 8.3,-8.4 z" /></g></svg>