<?xml version="1.0" encoding="UTF-8" standalone="no"?>
<svg
   xmlns:dc="http://purl.org/dc/elements/1.1/"
   xmlns:cc="http://creativecommons.org/ns#"
   xmlns:rdf="http://www.w3.org/1999/02/22-rdf-syntax-ns#"
   xmlns:svg="http://www.w3.org/2000/svg"
   xmlns="http://www.w3.org/2000/svg"
   xmlns:sodipodi="http://sodipodi.sourceforge.net/DTD/sodipodi-0.dtd"
   xmlns:inkscape="http://www.inkscape.org/namespaces/inkscape"
   version="1.1"
   x="0px"
   y="0px"
   viewBox="0 0 90 90"
   enable-background="new 0 0 100 100"
   xml:space="preserve"
   id="svg2"
   inkscape:version="0.91 r13725"
   sodipodi:docname="open.svg"
   width="90"
   height="90"><metadata
     id="metadata18"><rdf:RDF><cc:Work
         rdf:about=""><dc:format>image/svg+xml</dc:format><dc:type
           rdf:resource="http://purl.org/dc/dcmitype/StillImage" /><dc:title></dc:title></cc:Work></rdf:RDF></metadata><defs
     id="defs16" /><sodipodi:namedview
     pagecolor="#ffffff"
     bordercolor="#666666"
     borderopacity="1"
     objecttolerance="10"
     gridtolerance="10"
     guidetolerance="10"
     inkscape:pageopacity="0"
     inkscape:pageshadow="2"
     inkscape:window-width="1920"
     inkscape:window-height="1147"
     id="namedview14"
     showgrid="false"
     fit-margin-top="0"
     fit-margin-left="0"
     fit-margin-right="0"
     fit-margin-bottom="0"
     inkscape:zoom="1.888"
     inkscape:cx="45"
     inkscape:cy="32.5"
     inkscape:window-x="-8"
     inkscape:window-y="22"
     inkscape:window-maximized="1"
     inkscape:current-layer="svg2" /><path
     d="m 41.998,17.676 c 0.817,-0.715 1.884,-1.108 3.004,-1.108 1.118,0 2.186,0.394 3.003,1.108 l 17.39,15.221 c 0.481,0.421 0.771,1.006 0.813,1.645 0.042,0.639 -0.167,1.255 -0.589,1.737 -0.837,0.956 -2.424,1.063 -3.381,0.225 l -14.84,-12.988 0,35.384 c 0,1.321 -1.075,2.396 -2.396,2.396 -1.321,0 -2.396,-1.074 -2.396,-2.396 l 0,-35.386 -14.844,12.991 c -0.96,0.836 -2.542,0.729 -3.382,-0.229 -0.869,-0.994 -0.768,-2.511 0.226,-3.381 L 41.998,17.676 Z"
     id="path4"
     inkscape:connector-curvature="0" /><path
     d="m 74.832,68.641 -59.664,0 c -1.322,0 -2.397,1.073 -2.397,2.396 0,1.321 1.075,2.396 2.397,2.396 l 59.664,0 c 1.322,0 2.396,-1.074 2.396,-2.396 0,-1.323 -1.074,-2.396 -2.396,-2.396 z"
     id="path6"
     inkscape:connector-curvature="0" /><path
     d="M 80.029,0 9.97,0 C 4.473,0 0,4.473 0,9.97 L 0,80.03 C 0,85.527 4.473,90 9.97,90 l 70.059,0 C 85.527,90 90,85.527 90,80.03 L 90,9.97 C 90,4.473 85.527,0 80.029,0 Z m 5.179,80.03 c 0,2.854 -2.323,5.178 -5.179,5.178 l -70.059,0 c -2.854,0 -5.178,-2.323 -5.178,-5.178 l 0,-70.06 c 0,-2.854 2.323,-5.178 5.178,-5.178 l 70.059,0 c 2.854,0 5.179,2.323 5.179,5.178 l 0,70.06 z"
     id="path8"
     inkscape:connector-curvature="0" /></svg>