<svg xmlns="http://www.w3.org/2000/svg" xmlns:xlink="http://www.w3.org/1999/xlink" version="1.2" baseProfile="tiny" x="0px" y="0px" viewBox="0 0 100 125" xml:space="preserve"><g><path d="M94,12.8H6c-2.9,0-5.2,2.4-5.2,5.2v64c0,2.9,2.4,5.2,5.2,5.2h88c2.9,0,5.2-2.4,5.2-5.2V18C99.2,15.1,96.9,12.8,94,12.8z    M96.8,82c0,1.5-1.2,2.8-2.8,2.8H6c-1.5,0-2.8-1.2-2.8-2.8V18c0-1.5,1.2-2.8,2.8-2.8h88c1.5,0,2.8,1.2,2.8,2.8V82z"/><path d="M73.4,36.5c-0.2-0.4-0.5-0.7-1-0.8c-0.4-0.1-0.9,0.1-1.2,0.4l-22,26.6L37,51.9c-0.5-0.4-1.2-0.4-1.7,0L12.7,73.1   c-0.5,0.5-0.5,1.3-0.1,1.8c0.5,0.5,1.3,0.5,1.8,0.1l21.8-20.4l12.3,11c0.3,0.2,0.6,0.3,0.9,0.3c0.3,0,0.7-0.2,0.9-0.5l21.5-26   l13.8,35c0.2,0.5,0.7,0.8,1.2,0.8c0.2,0,0.3,0,0.5-0.1c0.6-0.3,1-1,0.7-1.6L73.4,36.5z"/><path d="M45.2,45c6,0,10.8-4.9,10.8-10.8c0-6-4.9-10.9-10.8-10.9s-10.8,4.9-10.8,10.9S39.2,45,45.2,45z M45.2,25.9   c4.6,0,8.3,3.7,8.3,8.4c0,4.6-3.7,8.3-8.3,8.3s-8.3-3.7-8.3-8.3C36.9,29.6,40.6,25.9,45.2,25.9z"/></g><text x="0" y="115" fill="#000000" font-size="5px" font-weight="bold" font-family="'Helvetica Neue', Helvetica, Arial-Unicode, Arial, Sans-serif">Created by Juraj Sedlák</text><text x="0" y="120" fill="#000000" font-size="5px" font-weight="bold" font-family="'Helvetica Neue', Helvetica, Arial-Unicode, Arial, Sans-serif">from the Noun Project</text></svg>