<svg xmlns="http://www.w3.org/2000/svg" viewBox="0 0 51 48.75" x="0px" y="0px"><title>project</title><path d="M190,341v2H174v-2h16Zm-16,4h16v2H174v-2Zm0,4h16v2H174v-2Zm0,4h16v2H174v-2Zm0,4h16v2H174v-2Zm0,4h16v2H174v-2Zm28-9,5-6.2a8,8,0,1,1-5-1.8h0.2Zm15,17.5a2.5,2.5,0,0,1-2.5,2.5h-46a2.5,2.5,0,0,1-2.5-2.5v-34a2.5,2.5,0,0,1,2.5-2.5h46a2.5,2.5,0,0,1,2.5,2.5v34Zm-48-.5h45V336H169v33Z" transform="translate(-166 -333)"/><text x="0" y="54" fill="#000000" font-size="5px" font-weight="bold" font-family="'Helvetica Neue', Helvetica, Arial-Unicode, Arial, Sans-serif">Created by Ismael Ruiz</text><text x="0" y="59" fill="#000000" font-size="5px" font-weight="bold" font-family="'Helvetica Neue', Helvetica, Arial-Unicode, Arial, Sans-serif">from the Noun Project</text></svg>