<svg xmlns="http://www.w3.org/2000/svg" xmlns:xlink="http://www.w3.org/1999/xlink" version="1.1" x="0px" y="0px" viewBox="0 0 100 125" enable-background="new 0 0 100 100" xml:space="preserve"><path d="M85,31.001H71.979V18.108l6.711,6.693c0.586,0.585,1.535,0.585,2.121,0c0.586-0.584,0.586-1.531,0-2.115l-9.271-9.248  C71.26,13.16,70.873,13,70.479,13s-0.781,0.16-1.061,0.438l-9.271,9.248c-0.586,0.584-0.586,1.531,0,2.115  c0.586,0.585,1.535,0.585,2.121,0l6.71-6.693v12.893H58c-2.2,0-4.926-1.425-6.058-3.307l-1.885-3.258  C48.926,22.555,46.2,21.016,44,21.016H15c-2.2,0-4,1.796-4,3.99V49.07v20.946v12.967c0,2.195,1.8,3.99,4,3.99h70  c2.2,0,4-1.795,4-3.99V70.017V49.07V34.991C89,32.796,87.2,31.001,85,31.001z M86,70.017v12.967c0,0.541-0.458,0.998-1,0.998H15  c-0.542,0-1-0.457-1-0.998V70.017v-21.01c0-0.54,0.458-0.997,1-0.997h70c0.542,0,1,0.457,1,0.997V70.017z M86,45.159  c-0.321-0.083-0.652-0.142-1-0.142H15c-0.348,0-0.679,0.059-1,0.142V25.006c0-0.541,0.458-0.997,1-0.997h29  c1.14,0,2.898,0.993,3.485,1.968l1.885,3.257c1.671,2.779,5.381,4.76,8.63,4.76h10.979v6.1c0,0.826,0.672,1.496,1.5,1.496  s1.5-0.67,1.5-1.496v-6.1H85c0.542,0,1,0.457,1,0.998V45.159z"/><text x="0" y="115" fill="#000000" font-size="5px" font-weight="bold" font-family="'Helvetica Neue', Helvetica, Arial-Unicode, Arial, Sans-serif">Created by Tomas Knopp</text><text x="0" y="120" fill="#000000" font-size="5px" font-weight="bold" font-family="'Helvetica Neue', Helvetica, Arial-Unicode, Arial, Sans-serif">from the Noun Project</text></svg>