<svg xmlns="http://www.w3.org/2000/svg" xmlns:xlink="http://www.w3.org/1999/xlink" version="1.1" x="0px" y="0px" viewBox="0 0 100 125"><g transform="translate(0, 0)"><path d="M50,22 C67.321,23.134 83.658,37.628 95,50 L95,50 L95,50 C83.315,62.026 67.582,77.252 50,78 C30,78 5,50 5,50 L10.507,50 L12.03,51.53 C15.257,54.719 18.789,57.908 22.499,60.876 C29.001,66.079 35.33,70.017 41.121,72.178 C44.347,73.383 47.323,74 50,74 C52.677,74 55.653,73.383 58.879,72.178 C64.67,70.017 70.999,66.079 77.501,60.876 C81.211,57.908 84.743,54.719 87.97,51.53 L89.492,50 L89.492,50 L87.97,48.47 C84.743,45.281 81.211,42.092 77.501,39.123 C70.999,33.921 64.67,29.983 58.879,27.821 C55.653,26.617 52.677,26 50,26 C47.323,26 44.347,26.617 41.121,27.821 C35.33,29.983 29.001,33.921 22.499,39.123 C18.789,42.092 15.257,45.281 12.03,48.47 L10.508,50 L5,50 C5,50 30,22 50,22 z M50,42.5 C54.142,42.5 57.5,45.858 57.5,50 C57.5,54.142 54.142,57.5 50,57.5 C45.858,57.5 42.5,54.142 42.5,50 C42.5,45.858 45.858,42.5 50,42.5 z M50,35 C41.716,35 35,41.716 35,50 C35,58.284 41.716,65 50,65 L50,65 C58.284,65 65,58.284 65,50 C65,41.716 58.284,35 50,35 z" fill="#000000"/></g><text x="0" y="0" fill="#000000" font-size="5px" font-weight="bold" font-family="'Helvetica Neue', Helvetica, Arial-Unicode, Arial, Sans-serif">Created by Robert Kyriakis</text><text x="100" y="100" fill="#000000" font-size="5px" font-weight="bold" font-family="'Helvetica Neue', Helvetica, Arial-Unicode, Arial, Sans-serif">from the Noun Project</text></svg>