<svg xmlns="http://www.w3.org/2000/svg" data-name="Layer 1" viewBox="0 0 50 62.5" x="0px" y="0px"><title>files_folders_tnp</title><path d="M31.29,32.71a1,1,0,0,1,1.41-1.41L35,33.59V26a1,1,0,0,1,2,0v7.59l2.29-2.29a1,1,0,0,1,1.41,1.41l-4,4a1,1,0,0,1-1.41,0ZM41,39H31a1,1,0,0,0,0,2H41A1,1,0,0,0,41,39Zm8-23.59V42.19A3.81,3.81,0,0,1,45.19,46H4.81A3.81,3.81,0,0,1,1,42.19V8.4A4.4,4.4,0,0,1,5.4,4H23.67A4.33,4.33,0,0,1,28,8.33V12H45.19C47.43,12,49,13.4,49,15.41ZM3,12H26V8.33A2.33,2.33,0,0,0,23.67,6H5.4A2.4,2.4,0,0,0,3,8.4V12Zm44,3.41C47,14.07,45.49,14,45.19,14H3V42.19A1.81,1.81,0,0,0,4.81,44H45.19A1.81,1.81,0,0,0,47,42.19V15.41Z"/><text x="0" y="65" fill="#000000" font-size="5px" font-weight="bold" font-family="'Helvetica Neue', Helvetica, Arial-Unicode, Arial, Sans-serif">Created by Karthik Aathis</text><text x="0" y="70" fill="#000000" font-size="5px" font-weight="bold" font-family="'Helvetica Neue', Helvetica, Arial-Unicode, Arial, Sans-serif">from the Noun Project</text></svg>