<?xml version="1.0" encoding="UTF-8" standalone="no"?>
<svg
   xmlns:dc="http://purl.org/dc/elements/1.1/"
   xmlns:cc="http://creativecommons.org/ns#"
   xmlns:rdf="http://www.w3.org/1999/02/22-rdf-syntax-ns#"
   xmlns:svg="http://www.w3.org/2000/svg"
   xmlns="http://www.w3.org/2000/svg"
   height="90"
   width="90"
   id="svg2"
   xml:space="preserve"
   enable-background="new 0 0 100 100"
   viewBox="0 0 90 90"
   y="0px"
   x="0px"
   version="1.1"><metadata
     id="metadata18"><rdf:RDF><cc:Work
         rdf:about=""><dc:format>image/svg+xml</dc:format><dc:type
           rdf:resource="http://purl.org/dc/dcmitype/StillImage" /><dc:title></dc:title></cc:Work></rdf:RDF></metadata><defs
     id="defs16" /><path
     id="path8"
     d="M 80.029,0 9.97,0 C 4.473,0 0,4.473 0,9.97 L 0,80.03 C 0,85.527 4.473,90 9.97,90 l 70.059,0 C 85.527,90 90,85.527 90,80.03 L 90,9.97 C 90,4.473 85.527,0 80.029,0 Z m 5.179,80.03 c 0,2.854 -2.323,5.178 -5.179,5.178 l -70.059,0 c -2.854,0 -5.178,-2.323 -5.178,-5.178 l 0,-70.06 c 0,-2.854 2.323,-5.178 5.178,-5.178 l 70.059,0 c 2.854,0 5.179,2.323 5.179,5.178 l 0,70.06 z" /><path
     style="fill-rule:evenodd"
     id="path10"
     d="m 35.1653,45.0001 18.7754,0 0,0.894 -18.7754,0 z m 17.8813,0.894 0.8941,0 0,2.6822 -0.8941,0 z m -17.8813,0 0.894,0 0,2.6822 -0.894,0 z m 8.9406,-3.5762 0.8941,0 0,2.6822 -0.8941,0 z m 3.5763,7.1524 11.6229,0 0,7.1526 -11.6229,0 z m -0.8941,-0.8941 13.4111,0 0,8.9407 -13.4111,0 z m -16.9872,0.8941 11.6228,0 0,7.1526 -11.6228,0 z m -0.8941,-0.8941 13.411,0 0,8.9407 -13.411,0 z m 9.8347,-14.305 11.6229,0 0,7.1525 -11.6229,0 z m -0.894,-0.8941 13.411,0 0,8.9407 -13.411,0 z m -18.7755,-5.3644 51.856,0 0,33.9746 -51.856,0 z m -0.894,-0.8941 53.644,0 0,35.7627 -53.644,0 z m -7.1526,-7.1524 67.9492,0 0,50.0678 -67.9492,0 z m -1.78812,-1.7882 71.52542,0 0,53.6441 -71.52542,0 z"
     class="cls-1" /></svg>