<?xml version="1.0" encoding="UTF-8" standalone="no"?>
<svg
   xmlns:dc="http://purl.org/dc/elements/1.1/"
   xmlns:cc="http://creativecommons.org/ns#"
   xmlns:rdf="http://www.w3.org/1999/02/22-rdf-syntax-ns#"
   xmlns:svg="http://www.w3.org/2000/svg"
   xmlns="http://www.w3.org/2000/svg"
   height="90"
   width="90"
   id="svg2"
   xml:space="preserve"
   enable-background="new 0 0 100 100"
   viewBox="0 0 90 90"
   y="0px"
   x="0px"
   version="1.1"><metadata
     id="metadata18"><rdf:RDF><cc:Work
         rdf:about=""><dc:format>image/svg+xml</dc:format><dc:type
           rdf:resource="http://purl.org/dc/dcmitype/StillImage" /><dc:title></dc:title></cc:Work></rdf:RDF></metadata><defs
     id="defs16" /><path
     id="path8"
     d="M 80.029,0 9.97,0 C 4.473,0 0,4.473 0,9.97 L 0,80.03 C 0,85.527 4.473,90 9.97,90 l 70.059,0 C 85.527,90 90,85.527 90,80.03 L 90,9.97 C 90,4.473 85.527,0 80.029,0 Z m 5.179,80.03 c 0,2.854 -2.323,5.178 -5.179,5.178 l -70.059,0 c -2.854,0 -5.178,-2.323 -5.178,-5.178 l 0,-70.06 c 0,-2.854 2.323,-5.178 5.178,-5.178 l 70.059,0 c 2.854,0 5.179,2.323 5.179,5.178 l 0,70.06 z" /><g
     transform="matrix(0.846987,0,0,0.846987,2.65065,2.65065)"
     id="g4"><path
       d="m 50,22 c 17.321,1.134 33.658,15.628 45,28 l 0,0 0,0 C 83.315,62.026 67.582,77.252 50,78 30,78 5,50 5,50 l 5.507,0 1.523,1.53 c 3.227,3.189 6.759,6.378 10.469,9.346 6.502,5.203 12.831,9.141 18.622,11.302 C 44.347,73.383 47.323,74 50,74 c 2.677,0 5.653,-0.617 8.879,-1.822 5.791,-2.161 12.12,-6.099 18.622,-11.302 3.71,-2.968 7.242,-6.157 10.469,-9.346 l 1.522,-1.53 0,0 -1.522,-1.53 C 84.743,45.281 81.211,42.092 77.501,39.123 70.999,33.921 64.67,29.983 58.879,27.821 55.653,26.617 52.677,26 50,26 c -2.677,0 -5.653,0.617 -8.879,1.821 -5.791,2.162 -12.12,6.1 -18.622,11.302 -3.71,2.969 -7.242,6.158 -10.469,9.347 L 10.508,50 5,50 C 5,50 30,22 50,22 Z m 0,20.5 c 4.142,0 7.5,3.358 7.5,7.5 0,4.142 -3.358,7.5 -7.5,7.5 -4.142,0 -7.5,-3.358 -7.5,-7.5 0,-4.142 3.358,-7.5 7.5,-7.5 z M 50,35 c -8.284,0 -15,6.716 -15,15 0,8.284 6.716,15 15,15 l 0,0 C 58.284,65 65,58.284 65,50 65,41.716 58.284,35 50,35 Z"
       id="path6"
       style="fill:#000000" /></g></svg>