<?xml version="1.0" encoding="UTF-8" standalone="no"?>
<svg
   xmlns:dc="http://purl.org/dc/elements/1.1/"
   xmlns:cc="http://creativecommons.org/ns#"
   xmlns:rdf="http://www.w3.org/1999/02/22-rdf-syntax-ns#"
   xmlns:svg="http://www.w3.org/2000/svg"
   xmlns="http://www.w3.org/2000/svg"
   height="90"
   width="90"
   id="svg2"
   xml:space="preserve"
   enable-background="new 0 0 100 100"
   viewBox="0 0 90 90"
   y="0px"
   x="0px"
   version="1.1"><metadata
     id="metadata18"><rdf:RDF><cc:Work
         rdf:about=""><dc:format>image/svg+xml</dc:format><dc:type
           rdf:resource="http://purl.org/dc/dcmitype/StillImage" /><dc:title></dc:title></cc:Work></rdf:RDF></metadata><defs
     id="defs16" /><path
     id="path4"
     d="m 41.998,60.188 c 0.817,0.715 1.884,1.108 3.004,1.108 1.118,0 2.186,-0.394 3.003,-1.108 l 17.39,-15.221 c 0.481,-0.421 0.771,-1.006 0.813,-1.645 0.042,-0.639 -0.167,-1.255 -0.589,-1.737 -0.837,-0.956 -2.424,-1.063 -3.381,-0.225 l -14.84,12.988 0,-35.384 c 0,-1.321 -1.075,-2.396 -2.396,-2.396 -1.321,0 -2.396,1.074 -2.396,2.396 l 0,35.386 -14.844,-12.991 c -0.96,-0.836 -2.542,-0.729 -3.382,0.229 -0.869,0.994 -0.768,2.511 0.226,3.381 l 17.392,15.219 z" /><path
     id="path6"
     d="m 74.832,68.641 -59.664,0 c -1.322,0 -2.397,1.073 -2.397,2.396 0,1.321 1.075,2.396 2.397,2.396 l 59.664,0 c 1.322,0 2.396,-1.074 2.396,-2.396 0,-1.323 -1.074,-2.396 -2.396,-2.396 z" /><path
     id="path8"
     d="M 80.029,0 9.97,0 C 4.473,0 0,4.473 0,9.97 L 0,80.03 C 0,85.527 4.473,90 9.97,90 l 70.059,0 C 85.527,90 90,85.527 90,80.03 L 90,9.97 C 90,4.473 85.527,0 80.029,0 Z m 5.179,80.03 c 0,2.854 -2.323,5.178 -5.179,5.178 l -70.059,0 c -2.854,0 -5.178,-2.323 -5.178,-5.178 l 0,-70.06 c 0,-2.854 2.323,-5.178 5.178,-5.178 l 70.059,0 c 2.854,0 5.179,2.323 5.179,5.178 l 0,70.06 z" /></svg>