<svg xmlns="http://www.w3.org/2000/svg" viewBox="0 0 90 90">
  <path d="M80.03 0H9.97C4.473 0 0 4.473 0 9.97v70.06C0 85.527 4.473 90 9.97 90h70.06c5.497 0 9.97-4.473 9.97-9.97V9.97C90 4.473 85.527 0 80.03 0zm5.178 80.03c0 2.854-2.323 5.178-5.18 5.178H9.97c-2.854 0-5.178-2.323-5.178-5.178V9.97c0-2.854 2.323-5.178 5.178-5.178h70.06c2.853 0 5.178 2.323 5.178 5.178v70.06z"/>
  <path d="M75.53 19.188H14.47c-2.013 0-3.61 1.665-3.61 3.608v44.408c0 2.012 1.666 3.608 3.61 3.608h61.06c2.013 0 3.61-1.665 3.61-3.608V22.796c0-2.012-1.597-3.608-3.61-3.608zm1.943 48.016c0 1.04-.832 1.943-1.942 1.943H14.47c-1.042 0-1.944-.833-1.944-1.943V22.796c0-1.04.833-1.943 1.943-1.943h61.06c1.04 0 1.942.833 1.942 1.943v44.408z"/>
  <path d="M61.237 35.633c-.14-.278-.347-.486-.694-.556-.278-.07-.625.07-.833.278L44.445 53.812l-8.465-7.494c-.347-.277-.833-.277-1.18 0l-15.682 14.71c-.347.347-.347.903-.07 1.25.348.346.903.346 1.25.07L35.424 48.19l8.535 7.632c.206.14.414.21.623.21.208 0 .485-.14.624-.348l14.92-18.04L69.7 61.93c.14.348.486.556.833.556.138 0 .208 0 .347-.07.416-.208.694-.694.485-1.11l-10.13-25.673zM41.67 41.53c4.163 0 7.493-3.4 7.493-7.493 0-4.164-3.4-7.564-7.494-7.564-4.096 0-7.496 3.4-7.496 7.564 0 4.163 3.33 7.494 7.494 7.494zm0-13.253c3.19 0 5.76 2.568 5.76 5.83 0 3.19-2.57 5.758-5.76 5.758-3.193 0-5.76-2.567-5.76-5.76 0-3.26 2.567-5.828 5.76-5.828z"/>
</svg>
