<svg xmlns="http://www.w3.org/2000/svg" viewBox="0 0 90 90">
  <path d="M80.03 0H9.97C4.473 0 0 4.473 0 9.97v70.06C0 85.527 4.473 90 9.97 90h70.06c5.497 0 9.97-4.473 9.97-9.97V9.97C90 4.473 85.527 0 80.03 0zm5.178 80.03c0 2.854-2.323 5.178-5.18 5.178H9.97c-2.854 0-5.178-2.323-5.178-5.178V9.97c0-2.854 2.323-5.178 5.178-5.178h70.06c2.853 0 5.178 2.323 5.178 5.178v70.06z"/>
  <path fill-rule="evenodd" d="M35.165 45H53.94v.894H35.166zm17.882.894h.894v2.682h-.892zm-17.882 0h.894v2.682h-.896zm8.94-3.576H45V45h-.894zm3.577 7.152h11.623v7.153H47.682zm-.894-.894h13.41v8.94H46.79zM29.8 49.47h11.624v7.153H29.8zm-.893-.894h13.41v8.94h-13.41zm9.835-14.305h11.622v7.155H38.742zm-.894-.892h13.41v8.94h-13.41zm-18.776-5.364h51.856v33.974H19.072zm-.894-.894h53.644v35.76H18.178zm-7.153-7.154h67.95v50.068h-67.95zm-1.788-1.788h71.526v53.644H9.237z" class="cls-1"/>
</svg>
