<?xml version="1.0" encoding="UTF-8" standalone="no"?>
<svg
   xmlns:dc="http://purl.org/dc/elements/1.1/"
   xmlns:cc="http://creativecommons.org/ns#"
   xmlns:rdf="http://www.w3.org/1999/02/22-rdf-syntax-ns#"
   xmlns:svg="http://www.w3.org/2000/svg"
   xmlns="http://www.w3.org/2000/svg"
   xmlns:sodipodi="http://sodipodi.sourceforge.net/DTD/sodipodi-0.dtd"
   xmlns:inkscape="http://www.inkscape.org/namespaces/inkscape"
   viewBox="0 0 90 90"
   id="svg2"
   version="1.1"
   inkscape:version="0.91 r13725"
   sodipodi:docname="insert_slide.svg">
  <metadata
     id="metadata12">
    <rdf:RDF>
      <cc:Work
         rdf:about="">
        <dc:format>image/svg+xml</dc:format>
        <dc:type
           rdf:resource="http://purl.org/dc/dcmitype/StillImage" />
      </cc:Work>
    </rdf:RDF>
  </metadata>
  <defs
     id="defs10" />
  <sodipodi:namedview
     pagecolor="#ffffff"
     bordercolor="#666666"
     borderopacity="1"
     objecttolerance="10"
     gridtolerance="10"
     guidetolerance="10"
     inkscape:pageopacity="0"
     inkscape:pageshadow="2"
     inkscape:window-width="742"
     inkscape:window-height="480"
     id="namedview8"
     showgrid="false"
     inkscape:zoom="2.62222"
     inkscape:cx="45"
     inkscape:cy="45"
     inkscape:window-x="492"
     inkscape:window-y="147"
     inkscape:window-maximized="0"
     inkscape:current-layer="svg2" />
  <path
     sodipodi:type="inkscape:offset"
     inkscape:radius="0.852726"
     inkscape:original="M 9.23633 18.1797 L 9.23633 71.8223 L 80.7637 71.8223 L 80.7637 18.1797 L 9.23633 18.1797 z M 11.0254 19.9668 L 78.9746 19.9668 L 78.9746 70.0352 L 11.0254 70.0352 L 11.0254 19.9668 z M 18.1777 27.1211 L 18.1777 62.8809 L 71.8223 62.8809 L 71.8223 27.1211 L 18.1777 27.1211 z M 19.0723 28.0156 L 70.9277 28.0156 L 70.9277 61.9883 L 19.0723 61.9883 L 19.0723 28.0156 z M 37.8477 33.3789 L 37.8477 42.3184 L 44.1055 42.3184 L 44.1055 45 L 35.1641 45 L 35.166 45.8945 L 35.1641 45.8945 L 35.1621 48.5762 L 28.9062 48.5762 L 28.9062 57.5156 L 42.3164 57.5156 L 42.3164 48.5762 L 36.0586 48.5762 L 36.0586 45.8945 L 53.0469 45.8945 L 53.0488 48.5762 L 46.7871 48.5762 L 46.7891 57.5156 L 60.1973 57.5156 L 60.1973 48.5762 L 53.9414 48.5762 L 53.9414 45.8945 L 53.9395 45.8945 L 53.9395 45 L 45 45 L 45 42.3184 L 51.2578 42.3184 L 51.2578 33.3789 L 37.8477 33.3789 z M 38.7422 34.2715 L 50.3633 34.2715 L 50.3633 41.4258 L 38.7422 41.4258 L 38.7422 34.2715 z M 29.8008 49.4707 L 41.4238 49.4707 L 41.4238 56.623 L 29.8008 56.623 L 29.8008 49.4707 z M 47.6816 49.4707 L 59.3047 49.4707 L 59.3047 56.623 L 47.6816 56.623 L 47.6816 49.4707 z "
     style="fill-rule:evenodd"
     id="path4140"
     d="m 9.23633,17.3262 a 0.852811,0.852811 0 0 0 -0.85352,0.8535 l 0,53.6426 a 0.852811,0.852811 0 0 0 0.85352,0.8535 l 71.52737,0 a 0.852811,0.852811 0 0 0 0.8535,-0.8535 l 0,-53.6426 a 0.852811,0.852811 0 0 0 -0.8535,-0.8535 l -71.52737,0 z m 2.64257,3.4941 66.2422,0 0,48.3613 -66.2422,0 0,-48.3613 z m 6.2988,5.4473 a 0.852811,0.852811 0 0 0 -0.8535,0.8535 l 0,35.7598 a 0.852811,0.852811 0 0 0 0.8535,0.8535 l 53.6446,0 a 0.852811,0.852811 0 0 0 0.8535,-0.8535 l 0,-35.7598 a 0.852811,0.852811 0 0 0 -0.8535,-0.8535 l -53.6446,0 z m 1.7481,2.6015 50.1484,0 0,32.2657 -50.1484,0 0,-32.2657 z m 17.9219,3.6563 a 0.852811,0.852811 0 0 0 -0.8536,0.8535 l 0,8.9395 a 0.852811,0.852811 0 0 0 0.8536,0.8535 l 5.4043,0 0,0.9746 -8.0879,0 a 0.852811,0.852811 0 0 0 -0.8536,0.8555 l 0,0.8632 a 0.852811,0.852811 0 0 0 -0,0.029 l 0,1.8282 -5.4043,0 a 0.852811,0.852811 0 0 0 -0.8535,0.8535 l 0,8.9394 a 0.852811,0.852811 0 0 0 0.8535,0.8535 l 13.4102,0 a 0.852811,0.852811 0 0 0 0.8535,-0.8535 l 0,-8.9394 a 0.852811,0.852811 0 0 0 -0.8535,-0.8535 l -5.4043,0 0,-0.9747 15.2832,0 0,0.9747 -5.4082,0 a 0.852811,0.852811 0 0 0 -0.8535,0.8535 l 0,8.9394 a 0.852811,0.852811 0 0 0 0.8536,0.8535 l 13.4082,0 a 0.852811,0.852811 0 0 0 0.8535,-0.8535 l 0,-8.9394 a 0.852811,0.852811 0 0 0 -0.8535,-0.8535 l -5.4024,0 0,-1.8282 a 0.852811,0.852811 0 0 0 -0,-0.029 l 0,-0.8652 a 0.852811,0.852811 0 0 0 -0.8535,-0.8535 l -8.086,0 0,-0.9746 5.4043,0 a 0.852811,0.852811 0 0 0 0.8535,-0.8535 l 0,-8.9395 a 0.852811,0.852811 0 0 0 -0.8535,-0.8535 l -13.4101,0 z m 1.748,2.5996 9.9141,0 0,5.4473 -9.9141,0 0,-5.4473 z m -8.9414,15.1992 9.916,0 0,5.4453 -9.916,0 0,-5.4453 z m 17.8809,0 9.916,0 0,5.4453 -9.916,0 0,-5.4453 z" />
</svg>
