<?xml version="1.0" encoding="UTF-8" standalone="no"?>
<svg
   xmlns:dc="http://purl.org/dc/elements/1.1/"
   xmlns:cc="http://creativecommons.org/ns#"
   xmlns:rdf="http://www.w3.org/1999/02/22-rdf-syntax-ns#"
   xmlns:svg="http://www.w3.org/2000/svg"
   xmlns="http://www.w3.org/2000/svg"
   xmlns:sodipodi="http://sodipodi.sourceforge.net/DTD/sodipodi-0.dtd"
   xmlns:inkscape="http://www.inkscape.org/namespaces/inkscape"
   viewBox="0 0 90 90"
   id="svg2"
   version="1.1"
   inkscape:version="0.91 r13725"
   sodipodi:docname="insert_image.svg">
  <metadata
     id="metadata14">
    <rdf:RDF>
      <cc:Work
         rdf:about="">
        <dc:format>image/svg+xml</dc:format>
        <dc:type
           rdf:resource="http://purl.org/dc/dcmitype/StillImage" />
      </cc:Work>
    </rdf:RDF>
  </metadata>
  <defs
     id="defs12" />
  <sodipodi:namedview
     pagecolor="#ffffff"
     bordercolor="#666666"
     borderopacity="1"
     objecttolerance="10"
     gridtolerance="10"
     guidetolerance="10"
     inkscape:pageopacity="0"
     inkscape:pageshadow="2"
     inkscape:window-width="742"
     inkscape:window-height="480"
     id="namedview10"
     showgrid="false"
     inkscape:zoom="2.62222"
     inkscape:cx="45"
     inkscape:cy="45"
     inkscape:window-x="486"
     inkscape:window-y="168"
     inkscape:window-maximized="0"
     inkscape:current-layer="svg2" />
  <path
     sodipodi:type="inkscape:offset"
     inkscape:radius="1.52542"
     inkscape:original="M 14.4707 19.1875 C 12.4577 19.1875 10.8594 20.8539 10.8594 22.7969 L 10.8594 67.2031 C 10.8594 69.2151 12.5267 70.8125 14.4707 70.8125 L 75.5293 70.8125 C 77.5423 70.8125 79.1406 69.1461 79.1406 67.2031 L 79.1406 22.7969 C 79.1406 20.7849 77.5423 19.1875 75.5293 19.1875 L 14.4707 19.1875 z M 14.4688 20.8535 L 75.5293 20.8535 C 76.5693 20.8535 77.4707 21.6869 77.4707 22.7969 L 77.4707 67.2031 L 77.4727 67.2031 C 77.4727 68.2431 76.6412 69.1465 75.5312 69.1465 L 14.4707 69.1465 C 13.4287 69.1465 12.5254 68.3131 12.5254 67.2031 L 12.5254 22.7969 C 12.5254 21.7569 13.3587 20.8535 14.4688 20.8535 z "
     style="stroke-width:0.1;stroke-miterlimit:4;stroke-dasharray:none"
     id="path4142"
     d="m 14.4707,17.6621 c -2.8548,0 -5.13672,2.3552 -5.13672,5.1348 l 0,44.4062 c 0,2.8547 2.35712,5.1348 5.13672,5.1348 l 61.0586,0 c 2.8548,0 5.1367,-2.3552 5.1367,-5.1348 l 0,-44.4062 c 0,-2.8199 -2.3167,-5.1348 -5.1367,-5.1348 l -61.0586,0 z m -0,4.7168 61.0605,0 c 0.2251,0 0.416,0.1338 0.416,0.418 l 0,44.4062 a 1.52558,1.52558 0 0 0 0,0 c -0,0.2255 -0.133,0.416 -0.4141,0.416 l -61.0605,0 c -0.2286,0 -0.4199,-0.1356 -0.4199,-0.418 l 0,-44.4062 c 0,-0.2252 0.1354,-0.418 0.418,-0.418 z" />
  <path
     sodipodi:type="inkscape:offset"
     inkscape:radius="1.13092"
     inkscape:original="M 41.6699 26.4727 C 37.5739 26.4727 34.1738 29.8731 34.1738 34.0371 C 34.1738 38.2001 37.504 41.5312 41.668 41.5312 L 41.6699 41.5293 C 45.8329 41.5293 49.1621 38.1301 49.1621 34.0371 C 49.1621 29.8731 45.7639 26.4727 41.6699 26.4727 z M 41.6699 28.2773 C 44.8599 28.2773 47.4297 30.8454 47.4297 34.1074 C 47.4297 37.2974 44.8599 39.8652 41.6699 39.8652 C 38.4769 39.8652 35.9102 37.2985 35.9102 34.1055 C 35.9102 30.8455 38.4769 28.2773 41.6699 28.2773 z M 60.543 35.0762 C 60.265 35.0062 59.9189 35.1475 59.7109 35.3555 L 44.4453 53.8125 L 35.9805 46.3184 C 35.6335 46.0414 35.1478 46.0414 34.8008 46.3184 L 19.1172 61.0273 C 18.7702 61.3743 18.7718 61.9303 19.0488 62.2773 C 19.3968 62.6233 19.9518 62.6237 20.2988 62.3477 L 35.4238 48.1895 L 43.959 55.8223 C 44.165 55.9623 44.373 56.0312 44.582 56.0312 C 44.79 56.0312 45.0661 55.8916 45.2051 55.6836 L 60.127 37.6445 L 69.6992 61.9297 C 69.8392 62.2777 70.1862 62.4863 70.5332 62.4863 C 70.6712 62.4863 70.7419 62.486 70.8809 62.416 C 71.2969 62.208 71.5742 61.7226 71.3652 61.3066 L 61.2344 35.6328 C 61.0944 35.3555 60.8894 35.1461 60.543 35.0762 z "
     id="path4144"
     d="m 41.6699,25.3418 c -4.7219,0 -8.6269,3.9157 -8.6269,8.6953 0,4.7661 3.8578,8.625 8.625,8.625 a 1.13103,1.13103 0 0 0 0.4472,-0.092 c 4.5577,-0.2473 8.1778,-3.9827 8.1778,-8.5332 0,-4.7793 -3.9029,-8.6953 -8.6231,-8.6953 z m 0,4.0664 c 2.5831,0 4.6289,2.0312 4.6289,4.6992 0,2.5827 -2.0458,4.627 -4.6289,4.627 -2.5869,0 -4.6289,-2.042 -4.6289,-4.6289 0,-2.6664 2.0423,-4.6973 4.6289,-4.6973 z m 19.1172,4.5723 c -0.824,-0.1944 -1.4112,0.1124 -1.875,0.5761 a 1.13103,1.13103 0 0 0 -0.072,0.078 L 44.3203,52.1895 36.7305,45.4707 a 1.13103,1.13103 0 0 0 -0.045,-0.037 c -0.7491,-0.598 -1.8407,-0.598 -2.5898,0 a 1.13103,1.13103 0 0 0 -0.068,0.061 l -15.6835,14.709 a 1.13103,1.13103 0 0 0 -0.025,0.025 c -0.7754,0.7754 -0.7975,1.9483 -0.1543,2.7539 a 1.13103,1.13103 0 0 0 0.088,0.098 c 0.774,0.7696 1.9428,0.7944 2.75,0.1523 a 1.13103,1.13103 0 0 0 0.07,-0.059 l 14.3691,-13.4511 7.7637,6.9433 a 1.13103,1.13103 0 0 0 0.1191,0.092 c 0.3561,0.242 0.8003,0.4043 1.2578,0.4043 0.714,0 1.169,-0.2607 1.5625,-0.8496 l -0.068,0.092 13.7011,-16.5625 8.8692,22.502 a 1.13103,1.13103 0 0 0 0,0.01 c 0.3231,0.8031 1.0826,1.2656 1.8828,1.2656 0.1396,0 0.58,-0.053 0.8555,-0.1914 0.4316,-0.2165 0.7753,-0.5499 0.9902,-1 0.2154,-0.451 0.2699,-1.082 -0,-1.627 l 0.043,0.092 -10.1309,-25.6738 a 1.13103,1.13103 0 0 0 -0.043,-0.094 c -0.2339,-0.4633 -0.7785,-0.9948 -1.457,-1.1425 z" />
</svg>
