<?xml version="1.0" encoding="UTF-8" standalone="no"?>
<svg
   xmlns:dc="http://purl.org/dc/elements/1.1/"
   xmlns:cc="http://creativecommons.org/ns#"
   xmlns:rdf="http://www.w3.org/1999/02/22-rdf-syntax-ns#"
   xmlns:svg="http://www.w3.org/2000/svg"
   xmlns="http://www.w3.org/2000/svg"
   xmlns:sodipodi="http://sodipodi.sourceforge.net/DTD/sodipodi-0.dtd"
   xmlns:inkscape="http://www.inkscape.org/namespaces/inkscape"
   viewBox="0 0 90 90"
   id="svg2"
   version="1.1"
   inkscape:version="0.91 r13725"
   sodipodi:docname="save.svg">
  <metadata
     id="metadata12">
    <rdf:RDF>
      <cc:Work
         rdf:about="">
        <dc:format>image/svg+xml</dc:format>
        <dc:type
           rdf:resource="http://purl.org/dc/dcmitype/StillImage" />
      </cc:Work>
    </rdf:RDF>
  </metadata>
  <defs
     id="defs10" />
  <sodipodi:namedview
     pagecolor="#ffffff"
     bordercolor="#666666"
     borderopacity="1"
     objecttolerance="10"
     gridtolerance="10"
     guidetolerance="10"
     inkscape:pageopacity="0"
     inkscape:pageshadow="2"
     inkscape:window-width="742"
     inkscape:window-height="480"
     id="namedview8"
     showgrid="false"
     inkscape:zoom="2.62222"
     inkscape:cx="45"
     inkscape:cy="45"
     inkscape:window-x="0"
     inkscape:window-y="0"
     inkscape:window-maximized="0"
     inkscape:current-layer="svg2" />
  <path
     d="M41.998 60.188c.817.715 1.884 1.108 3.004 1.108 1.118 0 2.186-.394 3.003-1.108l17.39-15.22c.48-.422.77-1.007.813-1.646.042-.64-.167-1.255-.59-1.737-.836-.956-2.423-1.063-3.38-.225l-14.84 12.988V18.964c0-1.32-1.075-2.396-2.396-2.396-1.32 0-2.396 1.074-2.396 2.396V54.35L27.762 41.36c-.96-.837-2.542-.73-3.382.228-.87.994-.768 2.51.226 3.38l17.392 15.22zm32.834 8.452H15.168c-1.322 0-2.397 1.074-2.397 2.397 0 1.32 1.078 2.396 2.4 2.396h59.664c1.322 0 2.396-1.074 2.396-2.396 0-1.323-1.075-2.396-2.397-2.396z"
     id="path4" />
</svg>
